# xmcd
#
# Track frame offsets:
#	150
#	11763
#	21600
#	29367
#	41248
#	55925
#	68382
#	84744
#	95136
#	104521
#
# Disc length: 1553 seconds
#
# Revision: 0
# Processed by: cddbd v1.5.2PL0 Copyright (c) Steve Scherf et al.
# Submitted via: audiograbber 1.83.01
#
DISCID=88060f0a
DTITLE=Assorted - 1960 Country disk 3
DYEAR=1900
DGENRE=
TTITLE0=George Jones - She Thinks I Still Care
TTITLE1=Merle Haggard - Mama Tried
TTITLE2=Roger Miller - Dang Me
TTITLE3=Jack Greene - All The Time
TTITLE4=Stonewall Jackson - BJ The DJ
TTITLE5=Glen Campbell - By The Time I Get To Phoenix
TTITLE6=Merle Haggard - Hungry Eyes
TTITLE7=Don Gibson - Lonesome Number One
TTITLE8=Jerry Lee Lewis - One Minute Past Eternity
TTITLE9=Tammy Wynette - 'Til I Get It Right
EXTD=
EXTT0=
EXTT1=
EXTT2=
EXTT3=
EXTT4=
EXTT5=
EXTT6=
EXTT7=
EXTT8=
EXTT9=
PLAYORDER=
